# xmcd CD database file
#
# Track frame offsets:
#	150
#	21966
#	32283
#	44494
#
# Disc length: 885 seconds
#
# Revision: 0
# Processed by: cddbd v1.5.2PL0 Copyright (c) Steve Scherf et al.
# Submitted via: CDex 1.70beta2
#
DISCID=27037304
DTITLE=Maria Skranes - Standards
DYEAR=2007
DGENRE=Jazz
TTITLE0=Black coffee
TTITLE1=Nobody's fault but mine
TTITLE2=Bye bye blackbird
TTITLE3=When Sunny gets blue
EXTD=YEAR: 2007
EXTT0=
EXTT1=
EXTT2=
EXTT3=
PLAYORDER=
